<svg xmlns="http://www.w3.org/2000/svg" width="255.567" height="241.604" viewBox="0 0 255.567 241.604">
  <rect id="Rectangle_2692" data-name="Rectangle 2692" width="255.567" height="241.604" fill="#003443"/>
  <g id="Group_17918" data-name="Group 17918" transform="translate(53.076 57.812)">
    <path id="Path_9415" data-name="Path 9415" d="M196.5,201.046q.546-2.4,1.239-6.957t1.8-13.254h.492q2.619,5.163,4.578,8.893t3.718,6.879q1.932-3.362,4.061-7.213t4.667-8.559h.388q.406,3.827.944,8.525t1.377,11.686c-.241-.049-.467-.082-.684-.107a5.786,5.786,0,0,0-.639-.034,5.61,5.61,0,0,0-.629.034c-.217.024-.443.058-.684.107q-.376-5.105-.787-8.965t-.757-5.529q-2.736,4.524-4.745,8.375a52.615,52.615,0,0,0-2.813,6.09h-.4a18.38,18.38,0,0,0-.974-2.522q-.642-1.394-1.839-3.549l-4.593-8.365q-.678,4.676-1.052,8.423t-.4,6.042a5.014,5.014,0,0,0-.556-.107,3.9,3.9,0,0,0-.526-.034,4.347,4.347,0,0,0-.546.034c-.192.024-.4.058-.635.107m-2.5-.867a33.767,33.767,0,0,1-4.067.9,24.409,24.409,0,0,1-3.786.315,11.45,11.45,0,0,1-8.025-2.7,9.355,9.355,0,0,1-2.955-7.276,9.9,9.9,0,0,1,3.176-7.707,12.187,12.187,0,0,1,8.507-2.885,15.837,15.837,0,0,1,3.963.47,11.479,11.479,0,0,1,3.3,1.39c-.153.445-.29.881-.4,1.3s-.217.837-.3,1.254a7.406,7.406,0,0,0-2.911-2.5,9.514,9.514,0,0,0-4.116-.823,7.706,7.706,0,0,0-6.009,2.522,9.658,9.658,0,0,0-2.277,6.724,9.272,9.272,0,0,0,2.37,6.642,8.233,8.233,0,0,0,6.274,2.5,11.781,11.781,0,0,0,4.785-.992c0-.179.015-.605.039-1.268s.044-1.2.044-1.583q0-.675-.03-1.5c-.019-.542-.044-1.283-.084-2.217.335.048.59.077.757.092s.329.024.482.034c.143-.01.3-.019.477-.034s.423-.044.747-.092q-.03,1.546-.059,2.687c-.02.76-.029,1.39-.029,1.878q0,.849.029,1.554C193.917,199.347,193.952,199.782,194,200.179ZM154.48,181.2c.2.038.408.063.62.082s.438.029.674.029a7.1,7.1,0,0,0,.762-.034c.221-.024.433-.053.634-.092q-.059,3.718-.084,6.637c-.019,1.951-.029,3.258-.029,3.931a18.078,18.078,0,0,0,.339,4.052,5.559,5.559,0,0,0,1.131,2.3,5.1,5.1,0,0,0,2.046,1.467,7.419,7.419,0,0,0,2.8.5,7.3,7.3,0,0,0,2.808-.523,5.12,5.12,0,0,0,2.06-1.506,5.883,5.883,0,0,0,1.116-2.5,28.9,28.9,0,0,0,.325-5.262c0-1.656-.01-3.229-.03-4.73s-.044-2.953-.084-4.362a3.378,3.378,0,0,0,.437.082,3.6,3.6,0,0,0,.467.029,3.511,3.511,0,0,0,.526-.034,4.23,4.23,0,0,0,.453-.077q-.074,1.735-.108,3.185c-.025.968-.034,1.67-.034,2.106v.75a67.51,67.51,0,0,1-.276,7.562,8.736,8.736,0,0,1-.934,3.161,6.555,6.555,0,0,1-2.832,2.59,9.993,9.993,0,0,1-4.371.871q-4.381,0-6.4-2.091t-2.016-6.661c0-.111.02-.837.064-2.169s.064-2.6.064-3.814q0-1.365-.1-4.7C154.5,181.648,154.49,181.382,154.48,181.2Zm-20.412,19.843q2.766-5.954,4.986-10.878t4.13-9.333h.566q2.058,5.1,4.2,10.147t4.342,10.064c-.261-.044-.507-.078-.743-.1a6.854,6.854,0,0,0-.7-.039c-.231,0-.467.01-.713.034s-.506.058-.787.107q-.516-1.59-1.15-3.239t-1.358-3.355l-.5-1.162c-.433-.019-.895-.034-1.392-.044s-1.239-.014-2.237-.014c-1.018,0-1.78,0-2.277.014s-.964.025-1.387.044q-.7,1.6-1.431,3.451c-.487,1.234-1.018,2.668-1.6,4.3a3.67,3.67,0,0,0-.492-.107,3.363,3.363,0,0,0-.492-.034,3.1,3.1,0,0,0-.457.034A3.874,3.874,0,0,0,134.068,201.046Zm5.488-9.033c.1,0,.408.005.9.015s.944.015,1.328.015q.45,0,1.77-.015c.885-.009,1.618-.015,2.193-.015l-.507-1.278c-.074-.208-.28-.7-.61-1.481s-.973-2.261-1.922-4.449Z" transform="translate(-134.068 -180.516)" fill="#fff"/>
    <path id="Path_9416" data-name="Path 9416" d="M442.648,201.046q.088-3.587.128-7t.044-6.632v-4.851h-.792q-1.755,0-3.122.092a22.832,22.832,0,0,0-2.311.261c.02-.189.034-.344.044-.47s.015-.232.015-.339-.005-.237-.015-.372-.025-.315-.044-.533q1.689.043,3.437.063t3.609.025q1.888,0,3.84-.025t4.012-.063a2.227,2.227,0,0,0-.044.3c-.01.116-.015.3-.015.542s0,.416.015.537.024.228.044.334a20.021,20.021,0,0,0-2.276-.266q-1.269-.087-2.941-.087l-.865.015c-.05.823-.084,1.753-.108,2.789s-.034,2.27-.034,3.708c0,1.844.015,3.766.044,5.775s.069,4.066.128,6.2c-.221-.029-.443-.053-.664-.068s-.447-.019-.688-.019c-.221,0-.452,0-.693.019s-.487.039-.747.068m-26.239-.015q.184-3.914.29-8.191t.1-8.927v-3.079h.546q3.172,3.6,6.628,7.257t7.863,8.021c0-.1.005-.242.015-.44.034-.992.049-1.7.049-2.116q0-3.5-.064-6.656t-.2-5.683c.265.039.467.063.6.078a3.419,3.419,0,0,0,.359.024,3.775,3.775,0,0,0,.383-.024c.138-.015.325-.039.561-.078q-.125,3.318-.192,6.7t-.069,6.917c0,.847.005,1.762.015,2.735s.025,2.26.044,3.858h-.374q-1.357-1.656-3.206-3.694t-4.347-4.613l-7.135-7.407c-.01.218-.03.77-.059,1.66s-.04,1.6-.04,2.14q0,1.764.064,4.526t.2,6.99c-.177-.044-.349-.072-.517-.1a4.458,4.458,0,0,0-.492-.029,3.216,3.216,0,0,0-.477.034C416.8,200.964,416.615,200.993,416.409,201.031Z" transform="translate(-304.633 -180.516)" fill="#fff"/>
    <path id="Path_9417" data-name="Path 9417" d="M367.356,180.029a10.6,10.6,0,1,1-1.266.005,2.767,2.767,0,0,1-.785,1.9,8.773,8.773,0,1,0,2.776-.023,2.845,2.845,0,0,1-.726-1.879" transform="translate(-268.241 -180.029)" fill="#d3b06d" fill-rule="evenodd"/>
    <path id="Path_9418" data-name="Path 9418" d="M371.229,187.258a7.553,7.553,0,0,1,.549,15.093,2.785,2.785,0,0,1,.62-1.39,6.352,6.352,0,1,0-2.359,0,2.773,2.773,0,0,1,.623,1.392,7.553,7.553,0,0,1,.567-15.092" transform="translate(-272.703 -184.396)" fill="#c1c1bf" fill-rule="evenodd"/>
  </g>
  <path id="Path_9421" data-name="Path 9421" d="M284.322,273.122H215.576a4.353,4.353,0,0,0-4.12-3.917,1.177,1.177,0,0,0,.3.777,3.628,3.628,0,1,1-1.148.01,1.146,1.146,0,0,0,.325-.785,4.352,4.352,0,0,0-4.084,3.915H138.1v.789h68.748a4.388,4.388,0,0,0,8.725,0h68.748Z" transform="translate(-83.428 -176.089)" fill="#d3b06d" fill-rule="evenodd"/>
  <path id="Path_9422" data-name="Path 9422" d="M317.932,272.195a3.123,3.123,0,0,1,.227,6.241,1.151,1.151,0,0,1,.256-.574,2.628,2.628,0,1,0-.975,0,1.149,1.149,0,0,1,.258.576,3.123,3.123,0,0,1,.234-6.241" transform="translate(-190.148 -177.896)" fill="#c1c1bf" fill-rule="evenodd"/>
  <g id="Group_17919" data-name="Group 17919" transform="translate(54.205 115.927)">
    <path id="Path_9423" data-name="Path 9423" d="M172.651,343.569v2.289a14.91,14.91,0,0,1-4.531,11.234q-4.533,4.365-11.83,4.364a17.332,17.332,0,0,1-12.759-5.008,17.534,17.534,0,0,1,0-24.589A16.938,16.938,0,0,1,156,326.826a17.288,17.288,0,0,1,8.539,2.147,15.672,15.672,0,0,1,6.01,5.771l-4.722,2.719a9.926,9.926,0,0,0-3.959-3.84A11.893,11.893,0,0,0,156,332.168a11.606,11.606,0,0,0-8.634,3.435,11.736,11.736,0,0,0-3.386,8.586,11.53,11.53,0,0,0,3.411,8.539,12.139,12.139,0,0,0,8.943,3.386,11.8,11.8,0,0,0,7.227-2.075,9.13,9.13,0,0,0,3.554-5.557H155.956v-4.913Z" transform="translate(-137.872 -326.826)" fill="#d3b06d"/>
    <path id="Path_9424" data-name="Path 9424" d="M277.257,356.424a17.5,17.5,0,1,1,5.033-12.283A16.707,16.707,0,0,1,277.257,356.424Zm-20.7-3.721a12.1,12.1,0,0,0,16.838,0,12.453,12.453,0,0,0,0-17.124,12.094,12.094,0,0,0-16.838,0,12.453,12.453,0,0,0,0,17.124Z" transform="translate(-203.818 -326.826)" fill="#d3b06d"/>
    <path id="Path_9425" data-name="Path 9425" d="M367.727,356.536h13.595v5.247h-19.08V328.394h5.485Z" transform="translate(-273.038 -327.773)" fill="#d3b06d"/>
    <path id="Path_9426" data-name="Path 9426" d="M448.252,328.394a15.067,15.067,0,0,1,11.424,4.817,17.731,17.731,0,0,1,0,23.731,15.031,15.031,0,0,1-11.424,4.841H435.135V328.394Zm0,28.142a9.984,9.984,0,0,0,7.7-3.244,12.814,12.814,0,0,0,0-16.432,10.022,10.022,0,0,0-7.7-3.22H440.62v22.9Z" transform="translate(-317.074 -327.773)" fill="#d3b06d"/>
    <path id="Path_9427" data-name="Path 9427" d="M150.466,450.608h-9.748v6.477h9.418v3.635h-9.418V470.1h-3.8V446.973h13.548Z" transform="translate(-136.918 -399.408)" fill="#d3b06d"/>
    <path id="Path_9428" data-name="Path 9428" d="M207.752,466.391a12.126,12.126,0,1,1,3.487-8.509A11.575,11.575,0,0,1,207.752,466.391Zm-14.341-2.578a8.38,8.38,0,0,0,11.664,0,8.627,8.627,0,0,0,0-11.863,8.379,8.379,0,0,0-11.664,0,8.627,8.627,0,0,0,0,11.863Z" transform="translate(-167.323 -398.752)" fill="#d3b06d"/>
    <path id="Path_9429" data-name="Path 9429" d="M279.813,470.1l-4.888-8.427h-4.5V470.1h-3.8V446.973h9.252a7.39,7.39,0,0,1,7.435,7.435,6.95,6.95,0,0,1-1.272,4.048,7.277,7.277,0,0,1-3.322,2.66l5.254,8.988Zm-9.385-19.562v7.733h5.452a3.408,3.408,0,0,0,2.578-1.124,4.087,4.087,0,0,0,0-5.486,3.409,3.409,0,0,0-2.578-1.123Z" transform="translate(-215.277 -399.408)" fill="#d3b06d"/>
    <path id="Path_9430" data-name="Path 9430" d="M370.485,470.1l-1.632-4.659h-9.837L357.4,470.1h-4.131l8.394-23.131h4.559l8.361,23.131Zm-10.211-8.228H367.6l-3.655-10.442Z" transform="translate(-267.617 -399.408)" fill="#d3b06d"/>
    <path id="Path_9431" data-name="Path 9431" d="M427.185,466.469H436.6V470.1H423.385V446.973h3.8Z" transform="translate(-309.975 -399.408)" fill="#d3b06d"/>
    <path id="Path_9432" data-name="Path 9432" d="M477.683,466.469H487.1V470.1H473.883V446.973h3.8Z" transform="translate(-340.482 -399.408)" fill="#d3b06d"/>
  </g>
</svg>
